<svg xmlns="http://www.w3.org/2000/svg" xmlns:xlink="http://www.w3.org/1999/xlink" version="1.1" id="Layer_1" x="0" y="0" viewBox="0 0 78.1 78.4" enable-background="new 0 0 78.1 78.4" xml:space="preserve"><g id="_x2E_svg"><path fill="#FFFFFF" d="M15.7 78.3c-1.5 0-2.9-0.8-3.7-2.1L0.7 58.3C0.2 57.6 0 56.6 0 55.7l2-32.3c0.1-1 0.5-2 1.2-2.7L20.9 1.6c1.1-1.2 2.8-1.7 4.3-1.3l7.2 1.9c1.9 0.5 3.3 2.3 3.3 4.3v64.4c0 2.1-1.5 3.9-3.6 4.3l-15.7 3C16.2 78.2 15.9 78.3 15.7 78.3zM24.2 3.7c-0.2 0-0.5 0.1-0.6 0.3L5.8 23.1c-0.1 0.1-0.2 0.3-0.2 0.5l-2 32.3c0 0.2 0 0.4 0.1 0.5l11.3 17.9c0.2 0.3 0.5 0.4 0.9 0.4l15.7-3c0.4-0.1 0.7-0.4 0.7-0.8V6.5c0-0.4-0.3-0.7-0.6-0.8l-7.2-1.9C24.3 3.7 24.2 3.7 24.2 3.7z"/><path fill="#FFFFFF" d="M33 37.6L33 37.6c-0.4 0-0.8-0.1-1.2-0.3L4.9 25c-1-0.4-1.6-1.4-1.6-2.4 -0.1-1 0.5-2 1.4-2.6L31.5 3.9c0.4-0.3 0.9-0.4 1.5-0.4 1.6 0 2.8 1.3 2.8 2.8v28.5c0 0.8-0.3 1.5-0.9 2C34.4 37.4 33.7 37.6 33 37.6zM7.6 22.4l24.6 11.3V7.6L7.6 22.4z"/><path fill="#FFFFFF" d="M14.9 78.4C14.9 78.4 14.9 78.4 14.9 78.4c-1 0-1.9-0.5-2.4-1.3L2.3 60.9c-0.6-0.9-0.6-2-0.1-2.9 0.7-1.3 2.4-1.8 3.8-1.2l26.1 13.2c1.1 0.6 1.7 1.7 1.5 2.9 -0.2 1.2-1.1 2.2-2.3 2.4l-15.9 3C15.3 78.4 15.1 78.4 14.9 78.4zM6.6 61.2l8.6 13.7 13.3-2.5L6.6 61.2z"/><path fill="#FFFFFF" d="M2.9 57.5L2.9 57.5c-0.8 0-1.5-0.3-2.1-0.9 -0.5-0.6-0.8-1.3-0.8-2.1L2 24c0.1-1.5 1.3-2.7 2.8-2.7 0.4 0 0.8 0.1 1.2 0.3L33 34c0.9 0.4 1.6 1.4 1.6 2.4 0.1 1-0.4 2-1.3 2.6L4.4 57.1C4 57.4 3.4 57.5 2.9 57.5zM5.5 25.2L3.7 53.3l26.6-16.7L5.5 25.2z"/><path fill="#FFFFFF" d="M9.7 20.6L9.7 20.6c-1.1 0-2.1-0.7-2.6-1.7 -0.5-1-0.2-2.2 0.5-3l13.9-15c0.7-0.8 1.8-1.1 2.8-0.8l7.7 2c1.1 0.3 1.9 1.2 2.1 2.3 0.2 1.1-0.4 2.2-1.3 2.8l-21.6 13C10.7 20.5 10.2 20.6 9.7 20.6zM23.9 3.6l-10.2 11 15.8-9.5L23.9 3.6z"/><path fill="#FFFFFF" d="M33 74.2c-0.4 0-0.9-0.1-1.3-0.3L2.6 59.1c-0.9-0.5-1.5-1.4-1.5-2.4 0-1 0.5-2 1.3-2.5L31.5 36c0.5-0.3 1-0.4 1.5-0.4 1.6 0 2.8 1.3 2.8 2.8v33C35.8 72.9 34.5 74.2 33 74.2zM5.3 56.5l26.9 13.7V39.7L5.3 56.5z"/><path fill="#FFFFFF" d="M62.4 78.3c-0.3 0-0.5 0-0.8-0.1l-15.7-3c-2.1-0.4-3.6-2.2-3.6-4.3V6.5c0-2 1.3-3.7 3.3-4.3l7.2-1.9c1.5-0.4 3.2 0.1 4.3 1.3l17.7 19.1c0.7 0.7 1.1 1.7 1.2 2.7l2 32.3c0.1 0.9-0.2 1.8-0.7 2.6L66.1 76.2C65.3 77.5 63.9 78.3 62.4 78.3zM53.9 3.7c-0.1 0-0.1 0-0.2 0l-7.2 1.9c-0.4 0.1-0.6 0.4-0.6 0.8v64.4c0 0.4 0.3 0.8 0.7 0.8l15.7 3c0.4 0.1 0.7-0.1 0.9-0.4l11.3-17.9c0.1-0.2 0.1-0.3 0.1-0.5l-2-32.3c0-0.2-0.1-0.4-0.2-0.5L54.5 4C54.4 3.8 54.1 3.7 53.9 3.7z"/><path fill="#FFFFFF" d="M45.1 37.6c-1.6 0-2.8-1.3-2.8-2.8V6.3c0-1.6 1.3-2.8 2.8-2.8 0.5 0 1 0.1 1.5 0.4L73.4 20c0.9 0.5 1.4 1.5 1.4 2.6 -0.1 1-0.7 2-1.6 2.4L46.3 37.4C45.9 37.5 45.5 37.6 45.1 37.6zM45.8 7.6v26.1l24.6-11.3L45.8 7.6z"/><path fill="#FFFFFF" d="M63.1 78.4c-0.2 0-0.4 0-0.5-0.1l-15.9-3c-1.2-0.2-2.1-1.2-2.3-2.4 -0.2-1.2 0.4-2.4 1.5-2.9l26.1-13.2c1.3-0.7 3-0.1 3.8 1.2 0.5 0.9 0.5 2-0.1 2.9L65.5 77.1C65 77.9 64.1 78.4 63.1 78.4zM49.5 72.3l13.3 2.5 8.6-13.7L49.5 72.3z"/><path fill="#FFFFFF" d="M75.2 57.5c-0.5 0-1-0.1-1.5-0.4L44.8 39c-0.9-0.6-1.4-1.5-1.3-2.6 0.1-1 0.7-2 1.6-2.4l27-12.4c0.4-0.2 0.8-0.3 1.2-0.3 1.5 0 2.7 1.2 2.8 2.7L78 54.5c0 0.8-0.2 1.5-0.8 2.1C76.7 57.2 75.9 57.5 75.2 57.5zM47.8 36.7l26.6 16.7 -1.8-28.1L47.8 36.7z"/><path fill="#FFFFFF" d="M68.3 20.6c-0.5 0-1-0.1-1.5-0.4l-21.6-13c-1-0.6-1.5-1.7-1.3-2.8s1-2 2.1-2.3l7.7-2c1-0.3 2.1 0.1 2.8 0.8l13.9 15c0.8 0.8 1 2 0.5 3C70.5 20 69.5 20.6 68.3 20.6zM48.6 5.1l15.8 9.5 -10.2-11L48.6 5.1z"/><path fill="#FFFFFF" d="M45.1 74.2L45.1 74.2c-1.6 0-2.8-1.3-2.8-2.8v-33c0-1.6 1.3-2.8 2.8-2.8 0.5 0 1 0.1 1.5 0.4l29.1 18.2c0.9 0.5 1.4 1.5 1.3 2.5 0 1-0.6 1.9-1.5 2.4L46.4 73.9C46 74.1 45.5 74.2 45.1 74.2zM45.8 39.7v30.5l26.9-13.7L45.8 39.7z"/></g></svg>